Coordinates
version=1
nRows=19
nColumns=34
inDegrees=yes

Units are S.I. units (second, meters, Newtons, ...)
If the header above contains a line with 'inDegrees', this indicates whether rotational values are in degrees (yes) or radians (no).

endheader
time	pelvis_tilt	pelvis_list	pelvis_rotation	pelvis_tx	pelvis_ty	pelvis_tz	hip_flexion_r	hip_adduction_r	hip_rotation_r	knee_angle_r	ankle_angle_r	subtalar_angle_r	mtp_angle_r	hip_flexion_l	hip_adduction_l	hip_rotation_l	knee_angle_l	ankle_angle_l	subtalar_angle_l	mtp_angle_l	lumbar_extension	lumbar_bending	lumbar_rotation	arm_flex_r	arm_add_r	arm_rot_r	elbow_flex_r	pro_sup_r	arm_flex_l	arm_add_l	arm_rot_l	elbow_flex_l	pro_sup_l
     10.05000000	     -9.33436214	     -4.39316054	      9.10029809	      1.04995691	      0.80503359	      0.08551526	     76.40243300	     -9.07809528	    -10.57057863	     12.94673772	    -16.20437007	    -12.63089380	      0.00000000	     67.27488361	     18.10259474	      6.50930525	     88.57099558	    -26.56861022	    -27.24396991	      0.00000000	    -28.79035712	      1.03776796	      4.76329426	    103.15384832	      1.67900096	     38.31072049	     35.22136272	     69.60260880	    111.43077635	     11.61365476	     70.90676087	     17.12543833	     29.07347835
     10.06666670	    -10.20040613	     -4.90539049	      8.53015047	      1.04943130	      0.81147523	      0.08494859	     76.98250598	     -8.44463237	    -10.12446661	     14.04837899	    -16.49421001	    -14.21231053	      0.00000000	     67.36185182	     17.27257804	      6.84490632	     87.78926366	    -28.31192659	    -26.90953547	      0.00000000	    -27.57229624	      1.55100988	      5.13970438	    103.05722050	      1.91608888	     38.82997600	     34.92605078	     69.55240202	    111.14618864	     11.31560269	     70.78983325	     16.96067273	     29.16177438
     10.08333330	    -10.28908561	     -4.94156039	      8.38277067	      1.04438691	      0.81889504	      0.08731774	     76.61112940	     -8.02808462	    -10.00229731	     13.62089476	    -16.78147454	    -13.27559919	      0.00000000	     66.58004806	     16.90971858	      6.78012531	     86.75776226	    -26.99999024	    -27.77291511	      0.00000000	    -27.32277033	      1.50196720	      4.93515431	    103.19118484	      2.01131973	     39.16330764	     34.71103259	     69.50577336	    111.36096891	     11.09487031	     70.84562072	     16.91345545	     29.23798706
     10.10000000	    -10.26580442	     -4.65482036	      8.54204214	      1.03970230	      0.82365150	      0.08505113	     76.29191340	     -8.44872914	     -9.89422745	     13.55500518	    -16.50625551	    -12.76890366	      0.00000000	     65.67595112	     17.53246783	      6.93495564	     85.42107648	    -30.25441318	    -27.41238228	      0.00000000	    -27.38590964	      1.59379563	      5.32276221	    103.80410476	      1.12619213	     41.33179391	     35.33841804	     69.58861201	    111.50151521	     11.20679356	     70.75425588	     17.62863237	     29.41862485
     10.11666670	    -10.20078960	     -4.62831940	      8.65306618	      1.03710813	      0.83235465	      0.08657838	     75.26124094	     -8.33572764	    -10.14655353	     12.18856634	    -16.55428110	     -9.96717692	      0.00000000	     64.66388721	     17.39417711	      7.15403804	     84.11509194	    -27.06403188	    -27.98564567	      0.00000000	    -27.58899819	      1.69673046	      5.56720912	    104.40597875	      0.12063415	     42.50728259	     35.85169658	     69.46258431	    111.79312873	     11.52456346	     70.69475843	     17.70536096	     29.56252434
     10.13333330	    -10.35651803	     -4.33592760	      8.35417298	      1.03865434	      0.84287184	      0.08636296	     74.81373918	     -8.15913343	    -10.20936273	     12.19382924	    -16.69514433	     -9.85388773	      0.00000000	     63.74602704	     17.49433699	      7.25335946	     82.76681396	    -30.06234915	    -25.87616213	      0.00000000	    -27.52567507	      1.49484883	      5.82583407	    104.72557095	     -0.13423904	     43.08437044	     35.86861305	     69.44437951	    111.90097819	     11.44785171	     70.74478106	     17.84609639	     29.59297987
     10.15000000	    -10.54990968	     -4.34498026	      8.05307099	      1.03635158	      0.85184152	      0.08866557	     74.33980128	     -7.47450825	     -9.87601725	     11.80106144	    -17.42252835	     -8.10883235	      0.00000000	     62.55183454	     17.05345449	      7.36070872	     80.75091378	    -28.53596982	    -27.03275958	      0.00000000	    -27.43506115	      1.33397743	      6.37330208	    105.24427082	     -0.95594367	     44.22726875	     36.04594845	     69.41827224	    112.03930868	     11.89344171	     70.92521888	     18.04704337	     29.63256201
     10.16666670	    -10.23295065	     -4.54812337	      7.97705629	      1.03399685	      0.85901278	      0.09096030	     73.38023920	     -6.93671497	    -10.09225437	     11.46498108	    -17.34937330	     -5.43248983	      0.00000000	     61.24491302	     16.61189520	      7.65379715	     79.43837399	    -29.76321847	    -27.45238264	      0.00000000	    -27.69160400	      1.43423734	      6.40423354	    105.49924121	     -1.38048435	     45.47912756	     36.47123424	     69.29494576	    112.31249213	     12.03469133	     71.33272109	     17.90094194	     29.62231733
     10.18333330	    -10.69300921	     -4.69781460	      7.54137626	      1.03698564	      0.86260563	      0.09244630	     73.36966886	     -6.35665554	    -10.09566254	     11.73336752	    -17.32686202	     -4.93063261	      0.00000000	     60.98173671	     15.99081936	      7.78795116	     78.30229720	    -28.81246413	    -28.30436226	      0.00000000	    -26.83194453	      1.46416987	      6.47746841	    105.07156269	     -1.20581208	     46.27088485	     36.97507970	     69.22417675	    111.90742421	     11.68311175	     71.66270123	     17.97630925	     29.59596538
     10.20000000	    -11.20605777	     -4.87534137	      7.45732113	      1.04129079	      0.87364425	      0.09269685	     73.48785401	     -6.10008352	     -9.97850977	     12.45740798	    -16.69064310	     -4.53080393	      0.00000000	     60.41179772	     15.57823296	      7.95131936	     77.02831264	    -29.64259254	    -28.25825638	      0.00000000	    -25.82331176	      1.62236263	      6.32913518	    104.52255283	     -1.48358194	     47.21677880	     37.78754551	     69.05180368	    111.30353571	     11.18008577	     72.22443685	     18.49618516	     29.54230120
     10.21666670	    -11.30393916	     -5.07467967	      7.33457024	      1.04033172	      0.88111148	      0.09327934	     72.91434907	     -5.77453687	     -9.53394280	     12.55640526	    -16.60100995	     -4.03884328	      0.00000000	     59.27269934	     14.97579666	      8.08896556	     75.54919831	    -27.07502491	    -29.37058329	      0.00000000	    -25.10891150	      1.82675318	      6.13005291	    103.83461658	     -1.46650330	     47.55597847	     37.96774831	     68.91519303	    110.69083843	     10.84534240	     72.51786889	     18.60368921	     29.48488870
     10.23333330	    -11.50144226	     -5.28869309	      7.11966492	      1.04003981	      0.88819244	      0.09411910	     72.64097888	     -5.48480243	     -9.29311389	     12.92393452	    -16.34066341	     -3.82221512	      0.00000000	     58.34696877	     14.40926130	      8.23633741	     74.30734637	    -24.06616378	    -28.24725425	      0.00000000	    -24.23271010	      2.08238145	      6.01866407	    103.34485172	     -1.32779347	     47.82775439	     37.57600230	     68.41562825	    110.04418779	     10.16875489	     73.31345133	     19.23066263	     29.29035753
     10.25000000	    -11.58659903	     -5.48972568	      7.00975442	      1.04056712	      0.90096418	      0.09417481	     72.06308435	     -5.25874988	     -8.75303580	     13.35796768	    -16.04316083	     -3.86165065	      0.00000000	     57.07331851	     13.81590366	      8.41759322	     72.50229743	    -23.62302808	    -28.20367854	      0.00000000	    -23.63367014	      2.40994679	      5.92672103	    102.65784006	     -1.20882699	     48.06347128	     37.78352491	     68.38636133	    109.44795659	      9.86274049	     73.47157454	     19.21569476	     29.26690121
     10.26666670	    -11.48523135	     -5.11465849	      6.48115895	      1.03873699	      0.90956029	      0.09524667	     71.24700262	     -5.00288678	     -8.71556414	     13.31536721	    -15.92474466	     -4.21595624	      0.00000000	     55.91884281	     13.37518908	      8.15931876	     70.78497455	    -23.52921001	    -25.45474727	      0.00000000	    -23.39767990	      2.00226831	      5.64033668	    102.24880447	     -0.98856369	     48.62708298	     38.33406613	     68.03324831	    109.34058537	      8.85079375	     74.38560215	     20.27077457	     29.11707340
     10.28333330	    -11.70346604	     -5.21328059	      6.03154490	      1.03955473	      0.92080539	      0.09471613	     70.86991664	     -4.48141887	     -8.74091771	     13.38148872	    -15.96967873	     -4.08313201	      0.00000000	     54.68215204	     12.56400925	      7.98710328	     68.59250811	    -23.55324993	    -25.21743824	      0.00000000	    -22.79631535	      2.11037172	      5.44577952	    101.78006951	     -0.68356417	     48.79852693	     38.34824603	     67.99536783	    108.98756524	      8.39530258	     74.53823468	     20.19417509	     29.08915844
     10.30000000	    -11.73194765	     -5.12140898	      5.68285006	      1.04434763	      0.93022452	      0.09542074	     70.09160596	     -4.21201919	     -8.91479658	     13.26570780	    -15.71464513	     -3.88147731	      0.00000000	     53.31277917	     12.00446581	      7.80042177	     66.48758069	    -26.58751885	    -23.20949115	      0.00000000	    -22.13112070	      2.06274280	      5.13836258	    101.00876403	     -0.19725743	     49.10103460	     38.17627519	     67.87158430	    108.26935165	      7.85436715	     74.94460152	     20.52918534	     29.03836382
     10.31666670	    -12.16918762	     -5.25615543	      4.90615587	      1.04537926	      0.93779857	      0.09610430	     69.82335416	     -3.75342327	     -8.70777132	     14.02900826	    -15.45980208	     -5.79002967	      0.00000000	     52.99721231	     10.90403201	      7.53971517	     64.46098026	    -28.93043722	    -23.13831810	      0.00000000	    -20.81646326	      2.25651222	      4.71345563	    100.21448699	      1.16536726	     49.43865335	     36.94070580	     67.36233346	    107.38999445	      6.44193903	     75.85326509	     21.47141969	     28.77241301
     10.33333330	    -12.97693091	     -5.86818307	      3.92735263	      1.04740195	      0.94652425	      0.09767077	     69.91995827	     -2.82617752	     -8.39097336	     15.19937147	    -15.23009746	     -8.34662181	      0.00000000	     53.13457346	      9.24011587	      7.39979686	     62.90710969	    -27.56269185	    -22.62298148	      0.00000000	    -19.28050659	      2.78245351	      5.03751646	     99.67414439	      1.72286879	     49.78097502	     36.27168253	     67.04529279	    106.65519770	      5.88860276	     76.24337423	     21.57619449	     28.55949247
     10.35000000	    -13.18937666	     -6.02237919	      3.25231142	      1.04473320	      0.96313599	      0.09724705	     69.00084942	     -2.22288367	     -7.73613574	     15.36844299	    -15.68131657	    -10.51687170	      0.00000000	     52.27016504	      7.99879764	      6.96543396	     60.52223537	    -24.62391012	    -21.66872217	      0.00000000	    -18.60245875	      2.97001668	      5.05508962	     99.38164734	      2.63358777	     50.05057432	     34.97509256	     66.44643964	    106.01977350	      5.23448655	     76.50917506	     22.23294466	     28.20795423
